<?xml version="1.0" encoding="UTF-8" standalone="no"?>
<!-- Created with Inkscape (http://www.inkscape.org/) -->

<svg
   width="300"
   height="260"
   viewBox="0 0 300 260"
   version="1.1"
   id="svg1"
   xml:space="preserve"
   inkscape:version="1.4 (e7c3feb100, 2024-10-09)"
   sodipodi:docname="dibujo.svg"
   xmlns:inkscape="http://www.inkscape.org/namespaces/inkscape"
   xmlns:sodipodi="http://sodipodi.sourceforge.net/DTD/sodipodi-0.dtd"
   xmlns:xlink="http://www.w3.org/1999/xlink"
   xmlns="http://www.w3.org/2000/svg"
   xmlns:svg="http://www.w3.org/2000/svg"><sodipodi:namedview
     id="namedview1"
     pagecolor="#ffffff"
     bordercolor="#000000"
     borderopacity="0.25"
     inkscape:showpageshadow="2"
     inkscape:pageopacity="0.0"
     inkscape:pagecheckerboard="0"
     inkscape:deskcolor="#d1d1d1"
     inkscape:document-units="px"
     showgrid="true"
     inkscape:zoom="1.4142136"
     inkscape:cx="219.2031"
     inkscape:cy="108.89444"
     inkscape:window-width="1366"
     inkscape:window-height="755"
     inkscape:window-x="0"
     inkscape:window-y="0"
     inkscape:window-maximized="1"
     inkscape:current-layer="layer2"><inkscape:grid
       id="grid1"
       units="px"
       originx="-310.15216"
       originy="2.8320312e-07"
       spacingx="1"
       spacingy="1"
       empcolor="#0099e5"
       empopacity="0.30196078"
       color="#0099e5"
       opacity="0.14901961"
       empspacing="5"
       enabled="true"
       visible="true" /></sodipodi:namedview><defs
     id="defs1"><linearGradient
       id="linearGradient12229"
       inkscape:collect="always"><stop
         style="stop-color:#5710ff;stop-opacity:1;"
         offset="0"
         id="stop12229" /><stop
         style="stop-color:#ff2ae1;stop-opacity:1;"
         offset="1"
         id="stop12230" /></linearGradient><linearGradient
       inkscape:collect="always"
       xlink:href="#linearGradient12229"
       id="linearGradient3"
       gradientUnits="userSpaceOnUse"
       gradientTransform="matrix(1.0673922,0,0,0.98853952,-1047.8478,-321.20624)"
       x1="1319.7544"
       y1="456.21732"
       x2="1507.127"
       y2="456.21732" /></defs><g
     inkscape:label="Capa 1"
     inkscape:groupmode="layer"
     id="layer1"
     transform="translate(-310.15216)"><g
       inkscape:groupmode="layer"
       id="layer2"
       inkscape:label="logoV1"><rect
         style="fill:#131326;fill-opacity:1;stroke-width:1.0198"
         id="rect2"
         width="300"
         height="260"
         x="310.15216"
         y="-2.8320312e-07"
         ry="60.000454" /><path
         style="fill:url(#linearGradient3);fill-opacity:1;stroke-width:1.02721"
         d="m 541.02333,208.56471 c -19.20153,-2.99436 -32.67661,-10.43345 -50.52619,-27.89356 -25.10901,-24.56118 -25.37607,-24.78531 -29.52332,-24.78531 -3.16674,0 -8.30719,3.96714 -26.17648,20.20183 -23.53685,21.38372 -31.40418,26.3303 -48.62943,30.5757 -10.36032,2.55343 -21.83361,2.52971 -24.14537,-0.0499 -2.01354,-2.24699 -1.38661,-23.2888 0.80998,-25.3231 0.70459,-0.65254 7.65649,-0.20886 12.85608,-0.89081 5.19958,-0.68196 9.91018,-0.27146 12.91254,-1.53224 7.68735,-3.22816 51.63603,-44.99382 51.6799,-49.11277 0.032,-2.97283 -17.91861,-22.24166 -36.65347,-39.345975 -8.86427,-8.092719 -19.88253,-9.430407 -30.47053,-10.76108 -4.19816,-0.527623 -9.9026,-0.429721 -10.79975,-0.943247 -2.42062,-1.385507 -2.38083,-22.058687 -0.41555,-25.459619 3.28991,-5.693078 24.99961,-2.658519 43.50371,6.080902 8.20151,3.873533 13.60977,8.164091 30.59861,24.275071 15.66779,14.858243 21.49286,19.572668 24.19423,19.581358 2.72825,0.009 8.53583,-4.739278 24.90578,-20.362196 28.30649,-27.014788 39.03528,-32.656729 62.58761,-32.912929 0,0 6.20798,-0.846935 8.4559,0.87855 2.83902,2.179208 3.83246,10.029615 3.83246,10.029615 1.0423,6.150442 -0.40927,16.404621 -1.52416,17.32339 -1.55785,1.283809 -10.91137,1.057691 -14.73249,1.769764 -15.62098,2.910999 -18.41311,2.655944 -42.1326,25.860296 -11.80738,11.55094 -21.46792,21.9177 -21.46792,23.03723 0,1.11953 5.85144,7.81884 13.00319,14.88736 7.15163,7.06854 17.02991,16.82269 21.95167,21.67594 10.84971,10.69881 20.14702,13.3781 32.71449,14.46497 5.04642,0.43643 9.7406,0.74219 10.43153,1.54371 0.69092,0.80151 1.69928,8.6761 2.24088,14.19041 1.41173,14.37426 -0.87302,15.89853 -19.4813,12.99667 z"
         id="path12226-9"
         sodipodi:nodetypes="ssssscssscsssssscssacsssssssssss" /></g></g></svg>
