<?xml version="1.0" encoding="UTF-8" standalone="no"?>
<!-- Created with Inkscape (http://www.inkscape.org/) -->

<svg
   width="70.590668mm"
   height="30.955065mm"
   viewBox="0 0 70.590668 30.955065"
   version="1.1"
   id="svg1"
   xmlns:inkscape="http://www.inkscape.org/namespaces/inkscape"
   xmlns:sodipodi="http://sodipodi.sourceforge.net/DTD/sodipodi-0.dtd"
   xmlns="http://www.w3.org/2000/svg"
   xmlns:svg="http://www.w3.org/2000/svg">
  <sodipodi:namedview
     id="namedview1"
     pagecolor="#ffffff"
     bordercolor="#000000"
     borderopacity="0.25"
     inkscape:showpageshadow="2"
     inkscape:pageopacity="0.0"
     inkscape:pagecheckerboard="0"
     inkscape:deskcolor="#d1d1d1"
     inkscape:document-units="mm"
     showguides="true">
    <inkscape:page
       x="0"
       y="0"
       width="70.590668"
       height="30.955065"
       id="page2"
       margin="0"
       bleed="0" />
  </sodipodi:namedview>
  <defs
     id="defs1" />
  <g
     inkscape:label="Capa 1"
     inkscape:groupmode="layer"
     id="layer1"
     transform="translate(-123.825,-38.629169)">
    <path
       id="path1"
       style="display:inline;fill:#3a3a3c;fill-opacity:1;stroke-width:1;stroke-dasharray:none"
       d="m 181.41533,38.629579 c -1.44807,0.01885 -2.8409,0.810146 -3.63427,2.276492 -0.27016,0.499312 -0.28124,0.941881 -0.28678,1.42704 -0.005,0.459278 0.0612,0.933901 0.24054,1.356764 0.17256,0.406949 0.47429,0.758213 0.77764,1.074127 l 0.53809,0.560146 -0.0928,0.738141 c -0.0509,0.406103 -0.0923,0.813623 -0.0923,0.905878 v 0.167736 l 0.28777,-0.214928 c 0.15824,-0.118471 0.54725,-0.399247 0.86484,-0.623753 l 0.57758,-0.408311 0.52938,0.04565 c 1.64653,0.142431 2.90423,-0.562516 3.17465,-0.752034 0.16999,-0.119131 0.72494,-0.578669 0.95689,-1.202472 0.28821,-0.775095 0.32681,-1.345387 0.3155,-1.810174 -0.0243,-1 -0.31869,-1.704017 -0.55995,-2 -0.75342,-0.924305 -2.14873,-1.559158 -3.59681,-1.540305 z m -7.62608,4.789455 c -1.2884,0.08919 -2.35371,0.931544 -3.00438,2.143637 -0.27141,0.505597 -0.31717,1.021501 -0.33564,1.417805 -0.0137,0.294634 -0.003,0.598903 0.0603,0.886899 0.0403,0.182358 0.2334,0.509364 0.2334,0.509364 0.439,0.955964 1.38992,1.780027 2.36985,2.053869 h 5.1e-4 c 0.3048,0.08506 0.74466,0.123925 1.19262,0.123109 0.40436,-7.36e-4 0.48077,-0.0089 0.71608,-0.04103 0.24928,-0.034 1.02129,-0.374969 1.02129,-0.374969 2.73887,-1.62568 2.05753,-6.400227 -1.69326,-6.714061 -0.18937,-0.01585 -0.37623,-0.01545 -0.56014,-0.0047 z m -12.453,7.630718 c -1.51716,0.07464 -2.90531,0.77498 -3.643,2.135942 -0.67196,1.239691 -1.22164,4.165923 -0.85203,4.535543 0.15349,0.153481 11.05304,0.153481 11.20652,0 0.31606,-0.316063 -0.47292,-2.65379 -1.32701,-3.93077 -1.26976,-1.898448 -3.43386,-2.836675 -5.38448,-2.740715 z m 13.91798,0.02565 c -1.02205,-0.02582 -2.17435,0.226554 -3.36447,0.795592 -1.64993,0.788896 -3.8634,4.922944 -3.11722,5.822033 0,0 0.11408,0.13402 0.17225,0.134395 0.3121,0.002 0.93522,0 0.93522,0 1.17949,0 1.15289,0.01998 1.23468,-0.929473 0.0336,-0.389497 0.0994,-0.857701 0.1467,-1.040272 0,0 0.0564,-0.321858 0.16619,-0.321623 0.80567,0.0017 3.61478,-0.01025 3.61478,-0.01025 h 3.69482 c 0,0 0.31993,0.01441 0.36471,-0.02 0.0321,-0.02462 0.0287,-0.255452 0.0287,-0.255452 l -9.9e-4,-0.37138 c -0.008,-2.343114 -1.62686,-3.746758 -3.87536,-3.803557 z m -29.50512,4.631467 c -0.0648,1.36e-4 -0.0764,0.166198 -0.0764,0.166198 -0.003,0.177173 -0.0913,2.357638 -0.0913,6.663791 v 6.492465 c 0.0416,0.234895 -0.045,0.393835 0.27546,0.393435 h 1.12901 c 0.76455,0 1.23586,0.01061 1.33888,-0.06742 0,0 0.0722,-0.05717 0.078,-0.152726 0.006,-0.101603 0.0327,-2.568276 0.0327,-2.568276 l 0.0226,-2.567337 2.13046,-0.0209 c 0,0 2.0751,-0.0051 2.13735,-0.01134 0.0405,-0.0041 0.0288,-1.170034 0.0288,-1.170034 l -0.001,-1.16492 c -0.003,-0.18715 0.0524,-0.330517 -0.28025,-0.33248 h -2.03181 -2.03181 l 0.0241,-1.48295 0.0159,-1.511165 2.78944,0.0052 c 1.87177,-0.01576 2.68503,-0.0296 2.85357,-0.03129 0.16854,-0.0017 0.11224,-2.313312 0.10976,-2.50527 0,0 0.0198,-0.133023 -0.10314,-0.133882 -1.21005,-0.0084 -4.14314,-0.0062 -4.14314,-0.0062 0,0 -2.37575,0.0013 -4.20719,0.0052 z m 36.67623,0.231343 c -0.34591,-0.01725 -0.70773,0.08211 -1.03924,0.334959 -0.9431,0.719349 -0.79867,2.232149 0.25904,2.712504 0.86085,0.390958 1.81106,0.06021 2.18827,-0.761226 0.52156,-1.135776 -0.37032,-2.234474 -1.40807,-2.286237 z m -4.32574,0.04617 c -0.10792,-0.0086 -0.22085,-0.0087 -0.33855,9.93e-4 -1.61826,0.134199 -1.99196,2.250672 -0.53347,3.021302 0.34649,0.182902 1.04122,0.186438 1.39883,0.0041 1.57875,-0.799455 1.09193,-2.896179 -0.52681,-3.026431 z m -4.53144,0.336499 c -0.54706,0.0034 -1.1119,0.0397 -1.17889,0.106694 -0.0767,0.07681 -0.0742,0.704578 -0.0742,2.266746 l -0.008,2.07997 -0.3549,-0.266703 c -0.18027,-0.158279 -0.5423,-0.364117 -0.84028,-0.513441 -0.45158,-0.194813 -0.85603,-0.258958 -1.34855,-0.287252 -5.59952,-0.318747 -5.32773,8.200667 -1.75123,9.462985 0.89215,0.314881 1.52904,0.383654 2.42883,0.281095 0.33048,-0.06138 0.89661,-0.231623 1.25113,-0.422439 0.22285,-0.119941 0.4119,-0.227963 0.6279,-0.395725 0.0342,-0.02662 -0.01,0.129839 -0.01,0.129839 -0.0469,0.623617 0.0503,0.571372 1.3325,0.571372 0.74948,0 1.15039,-0.03479 1.22186,-0.106182 l 0.10618,-0.106181 v -6.308315 c 0,0 -0.006,-4.268169 -0.006,-6.23274 1e-5,-0.08876 -0.17741,-0.163971 -0.24096,-0.176093 -0.41846,-0.07979 -0.6086,-0.08698 -1.15566,-0.08363 z m -14.69666,3.357292 c -1.93173,-0.0116 -3.87686,1.032361 -4.6884,3.31779 l -0.22314,0.628369 c 0,0 -0.0824,0.587467 -0.0831,0.897292 -6.6e-4,0.309823 0.0791,0.961655 0.0791,0.961655 l 0.19083,0.61965 c 0.58378,1.89563 2.03172,3.149979 3.93024,3.403966 3.28231,0.439104 5.73946,-1.678729 5.73946,-4.946421 0,-3.107882 -2.46123,-4.867385 -4.94489,-4.882301 z m 31.02965,0.02617 c -0.16409,-0.0037 -0.33124,-9.93e-4 -0.50168,0.0087 -5.91196,0.33749 -6.03029,9.093039 -0.13285,9.832312 1.42917,0.179152 3.07208,-0.260107 4.24777,-1.33317 0.42901,-0.391554 -0.47446,-1.488842 -1.16286,-1.627091 -0.27469,0.01488 -0.49962,0.233557 -0.73506,0.372919 -0.2342,0.138626 -0.46047,0.301579 -0.73217,0.36131 -0.24729,0.05437 -1.19894,0.05947 -1.58584,0.0044 -0.38689,-0.0551 -0.70273,-0.211893 -0.96003,-0.3924 -0.41032,-0.28784 -0.63266,-0.601697 -0.83893,-1.293143 l -0.0596,-0.199027 h 3.26752 3.26752 l 0.14158,-0.156451 c 0.20554,-0.227075 0.34769,-0.969513 0.28366,-1.480899 -0.31212,-2.491297 -2.03778,-4.041658 -4.49912,-4.097481 z m -8.77827,0.644497 c -0.20554,0.0082 -0.023,4.371911 -0.023,4.371911 -0.0164,3.154574 0.005,4.405342 0.0774,4.492455 0.0751,0.09042 2.4886,0.139741 2.52338,0.049 0.0339,-0.08839 0.0397,0.377724 0.0127,-4.541453 0,0 0.009,-4.169932 -0.0231,-4.371911 -0.065,-0.111082 -2.44025,-0.0051 -2.56731,0 z m 9.06087,1.444266 c 0.80887,0.168871 1.51108,0.811029 1.73687,1.588107 l 0.058,0.199027 h -2.26315 -2.26316 l 0.002,-0.1108 c 0.011,-0.587778 0.95188,-1.49464 1.73174,-1.669153 0.41529,-0.102677 0.63431,-0.08293 0.99775,-0.0071 z m -31.8832,0.482177 c 0.20007,-0.05135 0.40098,-0.06397 0.60323,-0.06566 0.2239,-0.0019 0.46885,0.01015 0.66891,0.06155 0.17729,0.04554 0.4319,0.203131 0.4319,0.203131 1.64615,0.905894 1.59555,3.375368 0.0708,4.324719 0,0 -0.29604,0.180056 -0.46048,0.227972 -0.17853,0.05202 -0.55466,0.0598 -0.55466,0.0598 -2.55204,0.131899 -3.5081,-3.374122 -1.25776,-4.612486 0,0 0.32064,-0.153486 0.49809,-0.199031 z m 11.16644,0.02041 c 0.19232,-0.03019 0.5833,-0.02913 0.5833,-0.02913 0.70039,0.03589 1.09297,0.167225 1.58278,0.561745 0.13413,0.108038 0.38566,0.400572 0.55213,0.700697 0.16135,0.290895 0.27076,0.636432 0.2805,0.723456 0.0436,0.389028 0.0338,0.732505 -0.0206,1.046296 -0.0545,0.314306 -0.16045,0.583056 -0.2482,0.716296 -0.0984,0.149378 -0.036,0.0686 -0.27082,0.32283 -0.20413,0.221111 -0.54906,0.439627 -0.80586,0.565275 -1.43678,0.702957 -3.01818,7.8e-5 -3.46603,-1.540402 -0.34908,-1.200793 0.21912,-2.461095 1.32342,-2.936151 0,0 0.3225,-0.104735 0.48929,-0.130911 z m 7.24664,-1.946852 c -0.0389,0.201979 -0.023,4.371911 -0.023,4.371911 -0.0164,3.154575 0.005,4.405343 0.0774,4.492456 0.075,0.09042 2.4886,0.139741 2.52339,0.049 0.0339,-0.08839 0.0397,0.377724 0.0127,-4.541454 0,0 0.009,-4.169931 -0.0231,-4.371911 -0.065,-0.111082 -2.54324,-0.124861 -2.56731,0 z m -12.7838,-17.414472 c -1.28837,0.08962 -2.3537,0.931544 -3.00437,2.143637 -0.27142,0.505597 -0.31719,1.021501 -0.33565,1.417805 -0.0137,0.294634 -0.003,0.598904 0.0603,0.886899 0.0403,0.182358 0.23339,0.509365 0.23339,0.509365 0.43901,0.955964 1.38992,1.780026 2.36985,2.053869 h 5.1e-4 c 0.30481,0.08506 0.74466,0.123925 1.19263,0.123109 0.40435,-7.37e-4 0.48077,-0.0089 0.71608,-0.04104 0.24928,-0.034 1.02129,-0.374969 1.02129,-0.374969 2.73886,-1.62568 2.05753,-6.400227 -1.69326,-6.714061 -0.18937,-0.01585 -0.37636,-0.01745 -0.56014,-0.0047 z m 1.46499,7.656368 c -1.02207,-0.02582 2.24848,0.05681 -2e-5,7e-6 z"
       sodipodi:nodetypes="csaacccsccsccsssscccscccsssssscccsscscccsccsccssscsccssscccscccccccczcscsscsccssccsssccsssscscsssccccsssccsssssssccsssssssssccsccccsssssscssssssccsssssscccssssssccccscsassssccccccsccccccccsscsccccccccc" />
    <path
       d="m 133.00761,41.986316 c -0.69077,0.02185 -1.269,0.116855 -2.04587,0.334346 -0.77688,0.217493 -1.67287,0.617545 -2.56574,1.036112 -0.89287,0.418569 -1.79795,1.182026 -2.47633,1.996779 -0.84235,1.011674 -1.58509,2.189903 -1.88103,3.472656 -0.44599,1.93321 -0.11154,3.996721 0.2558,5.946407 0.25667,1.362262 0.81656,2.653358 1.34566,3.934643 0.43381,1.050537 0.91988,2.084288 1.49448,3.064929 0.63503,1.083771 1.41897,2.072946 2.14716,3.096451 0.43505,0.611496 0.86587,1.232309 1.32756,1.819012 0.54735,0.695551 1.05082,1.471723 1.76682,1.999361 0.29505,0.217432 0.63615,0.461215 1.00252,0.451134 0.29484,-0.0081 0.35791,-0.04119 0.78548,-0.406693 0.42758,-0.365499 1.29819,-1.404257 1.75028,-2.005562 1.53492,-2.041484 3.12164,-4.385595 4.59456,-6.80682 0.82686,-1.359221 1.47596,-2.72782 1.973,-4.188892 0.42148,-1.23896 0.75354,-2.529061 0.83974,-3.834908 0.0511,-0.773029 -0.002,-1.565607 -0.1943,-2.316138 -0.25083,-0.980257 -0.64616,-1.9233 -1.2299,-2.775024 -0.46004,-0.671241 -0.82026,-1.182856 -1.40663,-1.746147 -0.58506,-0.562017 -1.11103,-1.172237 -1.81333,-1.586983 -0.44254,-0.26134 -0.90401,-0.508961 -1.38699,-0.687296 -0.50801,-0.187572 -0.9942,-0.403672 -1.39165,-0.51108 -0.778,-0.210258 -1.92339,-0.316898 -2.89129,-0.286287 z m -2.42363,3.352766 c 0.0424,-0.0022 0.0858,-0.0017 0.13281,5.18e-4 0.20331,0.0095 0.41578,0.07554 0.57723,0.199471 0.0844,0.06476 0.13935,0.172713 0.1788,0.264583 0.0688,0.160182 0.10516,0.347328 0.13384,0.526066 0.0677,0.422223 0.0884,1.280026 0.0884,1.280026 l -0.004,1.311031 c -0.004,1.314882 -0.0191,1.379244 -0.0191,1.379244 -0.007,0.748938 0.0868,1.044897 0.0868,1.044897 0.0937,0.157555 0.23306,0.182483 0.33899,0.175182 0.12666,-0.0088 0.20155,-0.04833 0.2589,-0.125056 0.11881,-0.15893 0.10486,-0.527414 0.0971,-0.587044 0.002,-0.206145 0.0136,-0.414689 -0.004,-0.627353 0,0 -0.0129,-0.599271 -0.0196,-0.907954 0,0 0.0175,-1.161775 0.0186,-2.249992 0,0 0.007,-0.535443 0.0537,-0.793233 0.0473,-0.25779 0.16611,-0.51678 0.32763,-0.648022 0.16153,-0.13124 0.31779,-0.160606 0.50436,-0.173116 0.18658,-0.01251 0.41662,0.01564 0.57361,0.134875 0.16827,0.127794 0.28779,0.324851 0.36122,0.542085 0.0617,0.18242 0.0807,0.411598 0.0987,0.654224 0.0358,0.482633 0.0537,0.96945 0.0537,0.96945 0,0.227635 -4e-5,1.50798 -0.007,2.261878 -0.003,0.332456 -0.0387,0.784381 -0.016,0.997355 0.0227,0.212974 0.009,0.285566 0.0806,0.367936 0.0715,0.08236 0.22265,0.143039 0.34933,0.153479 0.0986,0.0081 0.21814,-0.01874 0.28732,-0.07338 0.0692,-0.05464 0.057,-0.229499 0.0687,-0.346749 0.0305,-0.305105 0.008,-0.613256 0.004,-0.919841 -0.005,-0.312124 -0.02,-0.553461 -0.031,-0.93586 -0.011,-0.3824 -0.0311,-0.90562 -0.0336,-1.358573 -0.003,-0.517613 -0.0687,-1.043126 0.0212,-1.552878 0.0181,-0.102353 0.0108,-0.116142 0.10284,-0.294038 0.0736,-0.142235 0.26576,-0.33959 0.42323,-0.42478 0.15748,-0.08519 0.46257,-0.122725 0.46457,-0.09663 -0.002,-0.02216 0.30586,0.02541 0.43718,0.09612 0.11733,0.06317 0.21951,0.180056 0.28681,0.278536 0.0233,0.03419 0.06,0.09746 0.0785,0.141077 0.0346,0.08172 0.0464,0.148405 0.0465,0.148828 v 5.16e-4 h 5.2e-4 c 0,0 0.0141,0.05795 0.0243,0.164848 0.0768,0.809378 0.37325,4.427452 -0.0501,6.989754 -0.0781,0.472428 -0.27309,0.90615 -0.40411,1.280026 -0.10096,0.288097 -0.4868,0.782898 -0.4868,0.782898 -0.032,0.0281 -0.18241,0.209289 -0.18241,0.209289 l -0.34675,0.356568 c -0.0422,0.04602 -0.18405,0.186163 -0.3297,0.360701 -0.14565,0.174537 -0.33389,0.41262 -0.42788,0.656291 -0.11797,0.305828 -0.13102,0.595585 -0.15555,0.971 -0.15436,0.882691 0.14871,2.841657 0.13901,3.611666 -0.01,0.770009 -0.0102,0.764226 -0.0543,0.992187 -0.0441,0.22796 -0.06,0.263534 -0.12815,0.377755 -0.0735,0.123152 -0.17432,0.235263 -0.29301,0.315743 -0.26695,0.181017 -0.57974,0.346416 -0.90227,0.348816 -0.29845,0.0022 -0.58437,-0.156114 -0.83974,-0.310575 -0.12741,-0.07706 -0.25669,-0.184158 -0.33176,-0.299207 -0.0751,-0.115048 -0.085,-0.151077 -0.11834,-0.358634 -0.0334,-0.207556 0.007,-0.742209 0,-0.883667 0.012,-0.324502 0.0435,-0.716512 0.0786,-1.175122 0.0673,-0.881254 0.10213,-1.703594 0.0527,-2.586406 -0.045,-0.486553 -0.33871,-1.146613 -0.48214,-1.391129 -0.0848,-0.145974 -0.39068,-0.464055 -0.39068,-0.464055 -0.0817,-0.107705 -0.51961,-0.528998 -0.73484,-0.782898 -0.51045,-0.529412 -0.8768,-1.224999 -1.00355,-2.197282 -0.0689,-0.528149 0.003,-1.113646 5.1e-4,-1.85415 -0.006,-4.76823 0.16604,-5.298532 0.19689,-5.356262 0.0836,-0.166472 0.17891,-0.331303 0.35295,-0.436149 0.17123,-0.09558 0.28868,-0.12827 0.416,-0.134876 z"
       style="display:inline;fill:#f06859;fill-opacity:1"
       id="path3"
       sodipodi:nodetypes="ssssssssssssssssccssssssccssccscccscccccsssssccsccsccscssscsccccccsscccsscsssscssscsccccsccccc" />
  </g>
</svg>
